<svg xmlns="http://www.w3.org/2000/svg" xmlns:xlink="http://www.w3.org/1999/xlink" width="500" zoomAndPan="magnify" viewBox="0 0 375 374.999991" height="500" preserveAspectRatio="xMidYMid meet" version="1.2"><defs/><g id="490b4f3cf0"><path style=" stroke:none;fill-rule:nonzero;fill:#fbc02d;fill-opacity:1;" d="M 97.648438 121.8125 C 87.769531 111.929688 71.691406 111.929688 61.816406 121.8125 L 49.679688 133.945312 C 47.867188 135.757812 47.867188 138.695312 49.679688 140.507812 C 51.492188 142.320312 54.429688 142.320312 56.242188 140.507812 L 68.378906 128.375 C 83.851562 113.84375 105.652344 135.636719 91.085938 151.082031 C 91.085938 151.082031 76.90625 165.265625 76.90625 165.265625 C 69.722656 172.640625 56.90625 171.042969 51.769531 162.136719 C 50.460938 159.925781 47.609375 159.203125 45.40625 160.507812 C 40.554688 163.570312 44.6875 169 47.632812 171.828125 C 52.574219 176.769531 59.058594 179.238281 65.546875 179.238281 C 72.039062 179.238281 78.527344 176.769531 83.46875 171.828125 L 97.648438 157.648438 C 107.484375 148.210938 107.488281 131.246094 97.648438 121.8125 Z M 97.648438 121.8125 "/><path style=" stroke:none;fill-rule:nonzero;fill:#fbc02d;fill-opacity:1;" d="M 57.984375 184.1875 L 45.847656 196.320312 C 30.492188 210.894531 8.566406 188.976562 23.144531 173.613281 C 23.140625 173.613281 37.324219 159.425781 37.324219 159.425781 C 44.492188 152.066406 57.292969 153.636719 62.4375 162.53125 C 63.742188 164.738281 66.59375 165.46875 68.792969 164.15625 C 73.640625 161.113281 69.523438 155.667969 66.597656 152.863281 C 56.714844 142.984375 40.640625 142.988281 30.761719 152.863281 C 30.761719 152.863281 16.578125 167.046875 16.578125 167.046875 C 0.613281 182.792969 12.320312 210.550781 34.496094 210.292969 C 40.984375 210.292969 47.472656 207.824219 52.414062 202.882812 L 64.546875 190.75 C 68.785156 186.355469 62.375 179.945312 57.984375 184.1875 Z M 57.984375 184.1875 "/><g style="fill:#3c3c44;fill-opacity:1;"><g transform="translate(63.563789, 237.653461)"><path style="stroke:none" d="M 53.09375 -45.359375 C 51.695312 -49.691406 49.398438 -53.113281 46.203125 -55.625 C 43.015625 -58.144531 39.039062 -59.40625 34.28125 -59.40625 C 30.363281 -59.40625 26.804688 -58.394531 23.609375 -56.375 C 20.410156 -54.351562 17.863281 -51.378906 15.96875 -47.453125 C 14.082031 -43.523438 13.140625 -38.703125 13.140625 -32.984375 C 13.140625 -27.273438 14.09375 -22.453125 16 -18.515625 C 17.914062 -14.585938 20.503906 -11.613281 23.765625 -9.59375 C 27.035156 -7.582031 30.710938 -6.578125 34.796875 -6.578125 C 38.503906 -6.578125 41.789062 -7.363281 44.65625 -8.9375 C 47.53125 -10.519531 49.78125 -12.753906 51.40625 -15.640625 C 53.039062 -18.523438 53.90625 -21.945312 54 -25.90625 L 36.59375 -25.90625 L 36.59375 -32.984375 L 61.71875 -32.984375 L 61.71875 -25.90625 C 61.71875 -20.46875 60.5625 -15.738281 58.25 -11.71875 C 55.945312 -7.707031 52.769531 -4.597656 48.71875 -2.390625 C 44.675781 -0.191406 40.035156 0.90625 34.796875 0.90625 C 28.953125 0.90625 23.820312 -0.46875 19.40625 -3.21875 C 15 -5.96875 11.5625 -9.875 9.09375 -14.9375 C 6.632812 -20.007812 5.40625 -26.023438 5.40625 -32.984375 C 5.40625 -39.941406 6.632812 -45.953125 9.09375 -51.015625 C 11.5625 -56.085938 14.96875 -60 19.3125 -62.75 C 23.664062 -65.5 28.65625 -66.875 34.28125 -66.875 C 38.914062 -66.875 43.125 -65.96875 46.90625 -64.15625 C 50.6875 -62.34375 53.832031 -59.816406 56.34375 -56.578125 C 58.851562 -53.347656 60.519531 -49.609375 61.34375 -45.359375 Z M 53.09375 -45.359375 "/></g></g><g style="fill:#3c3c44;fill-opacity:1;"><g transform="translate(123.067496, 226.267406)"><path style="stroke:none" d="M 9.953125 -20.34375 L 9.953125 0 L 4.75 0 L 4.75 -45.078125 L 9.953125 -45.078125 L 9.953125 -28.53125 L 10.390625 -28.53125 C 11.179688 -30.269531 12.375 -31.65625 13.96875 -32.6875 C 15.5625 -33.726562 17.6875 -34.25 20.34375 -34.25 C 23.800781 -34.25 26.585938 -33.207031 28.703125 -31.125 C 30.816406 -29.039062 31.875 -25.828125 31.875 -21.484375 L 31.875 0 L 26.671875 0 L 26.671875 -21.125 C 26.671875 -23.8125 25.976562 -25.890625 24.59375 -27.359375 C 23.207031 -28.835938 21.289062 -29.578125 18.84375 -29.578125 C 16.269531 -29.578125 14.144531 -28.773438 12.46875 -27.171875 C 10.789062 -25.566406 9.953125 -23.289062 9.953125 -20.34375 Z M 9.953125 -20.34375 "/></g></g><g style="fill:#3c3c44;fill-opacity:1;"><g transform="translate(152.625011, 226.267406)"><path style="stroke:none" d="M 18.484375 0.703125 C 15.429688 0.703125 12.753906 -0.0195312 10.453125 -1.46875 C 8.160156 -2.925781 6.375 -4.957031 5.09375 -7.5625 C 3.8125 -10.175781 3.171875 -13.234375 3.171875 -16.734375 C 3.171875 -20.253906 3.8125 -23.328125 5.09375 -25.953125 C 6.375 -28.578125 8.160156 -30.613281 10.453125 -32.0625 C 12.753906 -33.519531 15.429688 -34.25 18.484375 -34.25 C 21.535156 -34.25 24.207031 -33.519531 26.5 -32.0625 C 28.800781 -30.613281 30.59375 -28.578125 31.875 -25.953125 C 33.164062 -23.328125 33.8125 -20.253906 33.8125 -16.734375 C 33.8125 -13.234375 33.164062 -10.175781 31.875 -7.5625 C 30.59375 -4.957031 28.800781 -2.925781 26.5 -1.46875 C 24.207031 -0.0195312 21.535156 0.703125 18.484375 0.703125 Z M 18.484375 -3.96875 C 20.804688 -3.96875 22.710938 -4.5625 24.203125 -5.75 C 25.703125 -6.9375 26.8125 -8.5 27.53125 -10.4375 C 28.25 -12.375 28.609375 -14.472656 28.609375 -16.734375 C 28.609375 -18.992188 28.25 -21.097656 27.53125 -23.046875 C 26.8125 -24.992188 25.703125 -26.566406 24.203125 -27.765625 C 22.710938 -28.972656 20.804688 -29.578125 18.484375 -29.578125 C 16.171875 -29.578125 14.265625 -28.972656 12.765625 -27.765625 C 11.265625 -26.566406 10.15625 -24.992188 9.4375 -23.046875 C 8.71875 -21.097656 8.359375 -18.992188 8.359375 -16.734375 C 8.359375 -14.472656 8.71875 -12.375 9.4375 -10.4375 C 10.15625 -8.5 11.265625 -6.9375 12.765625 -5.75 C 14.265625 -4.5625 16.171875 -3.96875 18.484375 -3.96875 Z M 18.484375 -3.96875 "/></g></g><g style="fill:#3c3c44;fill-opacity:1;"><g transform="translate(182.534679, 226.267406)"><path style="stroke:none" d="M 28.703125 -26.234375 L 24.03125 -24.921875 C 23.582031 -26.085938 22.820312 -27.1875 21.75 -28.21875 C 20.675781 -29.25 19.003906 -29.765625 16.734375 -29.765625 C 14.660156 -29.765625 12.9375 -29.289062 11.5625 -28.34375 C 10.195312 -27.394531 9.515625 -26.191406 9.515625 -24.734375 C 9.515625 -23.441406 9.984375 -22.421875 10.921875 -21.671875 C 11.859375 -20.929688 13.320312 -20.3125 15.3125 -19.8125 L 20.34375 -18.578125 C 26.320312 -17.109375 29.3125 -14.054688 29.3125 -9.421875 C 29.3125 -7.484375 28.757812 -5.75 27.65625 -4.21875 C 26.550781 -2.695312 25.003906 -1.492188 23.015625 -0.609375 C 21.035156 0.265625 18.734375 0.703125 16.109375 0.703125 C 12.660156 0.703125 9.804688 -0.0390625 7.546875 -1.53125 C 5.285156 -3.03125 3.851562 -5.21875 3.25 -8.09375 L 8.1875 -9.328125 C 9.113281 -5.691406 11.726562 -3.875 16.03125 -3.875 C 18.445312 -3.875 20.367188 -4.390625 21.796875 -5.421875 C 23.234375 -6.460938 23.953125 -7.707031 23.953125 -9.15625 C 23.953125 -11.550781 22.28125 -13.132812 18.9375 -13.90625 L 13.296875 -15.234375 C 10.203125 -15.960938 7.929688 -17.101562 6.484375 -18.65625 C 5.035156 -20.207031 4.3125 -22.148438 4.3125 -24.484375 C 4.3125 -26.390625 4.847656 -28.070312 5.921875 -29.53125 C 7.003906 -31 8.476562 -32.148438 10.34375 -32.984375 C 12.21875 -33.828125 14.347656 -34.25 16.734375 -34.25 C 20.078125 -34.25 22.707031 -33.515625 24.625 -32.046875 C 26.539062 -30.578125 27.898438 -28.640625 28.703125 -26.234375 Z M 28.703125 -26.234375 "/></g></g><g style="fill:#3c3c44;fill-opacity:1;"><g transform="translate(207.866303, 226.267406)"><path style="stroke:none" d="M 19.453125 -33.8125 L 19.453125 -29.40625 L 12.234375 -29.40625 L 12.234375 -9.6875 C 12.234375 -8.21875 12.445312 -7.117188 12.875 -6.390625 C 13.3125 -5.671875 13.867188 -5.1875 14.546875 -4.9375 C 15.234375 -4.695312 15.960938 -4.578125 16.734375 -4.578125 C 17.304688 -4.578125 17.773438 -4.609375 18.140625 -4.671875 C 18.503906 -4.742188 18.796875 -4.800781 19.015625 -4.84375 L 20.078125 -0.171875 C 19.722656 -0.046875 19.226562 0.0820312 18.59375 0.21875 C 17.96875 0.363281 17.171875 0.4375 16.203125 0.4375 C 14.734375 0.4375 13.296875 0.125 11.890625 -0.5 C 10.492188 -1.132812 9.335938 -2.097656 8.421875 -3.390625 C 7.503906 -4.679688 7.046875 -6.3125 7.046875 -8.28125 L 7.046875 -29.40625 L 1.9375 -29.40625 L 1.9375 -33.8125 L 7.046875 -33.8125 L 7.046875 -41.90625 L 12.234375 -41.90625 L 12.234375 -33.8125 Z M 19.453125 -33.8125 "/></g></g><g style="fill:#3c3c44;fill-opacity:1;"><g transform="translate(231.255575, 237.653461)"><path style="stroke:none" d="M 44.078125 -49.484375 C 43.679688 -52.742188 42.109375 -55.273438 39.359375 -57.078125 C 36.617188 -58.890625 33.25 -59.796875 29.25 -59.796875 C 24.863281 -59.796875 21.335938 -58.757812 18.671875 -56.6875 C 16.015625 -54.613281 14.6875 -52 14.6875 -48.84375 C 14.6875 -46.476562 15.410156 -44.570312 16.859375 -43.125 C 18.316406 -41.675781 20.035156 -40.546875 22.015625 -39.734375 C 24.003906 -38.929688 25.816406 -38.316406 27.453125 -37.890625 L 34.140625 -36.078125 C 35.859375 -35.628906 37.773438 -35.003906 39.890625 -34.203125 C 42.015625 -33.410156 44.046875 -32.332031 45.984375 -30.96875 C 47.929688 -29.601562 49.535156 -27.859375 50.796875 -25.734375 C 52.066406 -23.609375 52.703125 -21 52.703125 -17.90625 C 52.703125 -14.34375 51.769531 -11.125 49.90625 -8.25 C 48.050781 -5.375 45.347656 -3.085938 41.796875 -1.390625 C 38.242188 0.304688 33.929688 1.15625 28.859375 1.15625 C 21.773438 1.15625 16.148438 -0.515625 11.984375 -3.859375 C 7.816406 -7.210938 5.539062 -11.597656 5.15625 -17.015625 L 13.40625 -17.015625 C 13.613281 -14.515625 14.453125 -12.453125 15.921875 -10.828125 C 17.398438 -9.210938 19.269531 -8.015625 21.53125 -7.234375 C 23.800781 -6.453125 26.242188 -6.0625 28.859375 -6.0625 C 31.910156 -6.0625 34.648438 -6.554688 37.078125 -7.546875 C 39.503906 -8.546875 41.425781 -9.941406 42.84375 -11.734375 C 44.257812 -13.535156 44.96875 -15.640625 44.96875 -18.046875 C 44.96875 -20.234375 44.351562 -22.015625 43.125 -23.390625 C 41.90625 -24.765625 40.296875 -25.878906 38.296875 -26.734375 C 36.304688 -27.597656 34.148438 -28.351562 31.828125 -29 L 23.703125 -31.3125 C 18.554688 -32.789062 14.476562 -34.90625 11.46875 -37.65625 C 8.457031 -40.40625 6.953125 -44.003906 6.953125 -48.453125 C 6.953125 -52.148438 7.957031 -55.375 9.96875 -58.125 C 11.976562 -60.882812 14.679688 -63.03125 18.078125 -64.5625 C 21.484375 -66.101562 25.296875 -66.875 29.515625 -66.875 C 33.765625 -66.875 37.539062 -66.117188 40.84375 -64.609375 C 44.15625 -63.097656 46.78125 -61.03125 48.71875 -58.40625 C 50.664062 -55.78125 51.691406 -52.804688 51.796875 -49.484375 Z M 44.078125 -49.484375 "/></g></g><g style="fill:#3c3c44;fill-opacity:1;"><g transform="translate(276.197741, 225.33892)"><path style="stroke:none" d="M 7.921875 13.109375 C 7.046875 13.109375 6.257812 13.039062 5.5625 12.90625 C 4.875 12.769531 4.398438 12.632812 4.140625 12.5 L 5.453125 7.921875 C 7.347656 8.398438 8.929688 8.382812 10.203125 7.875 C 11.472656 7.375 12.5625 5.863281 13.46875 3.34375 L 14.609375 0.171875 L 2.109375 -33.796875 L 7.75 -33.796875 L 17.078125 -6.859375 L 17.421875 -6.859375 L 26.765625 -33.796875 L 32.390625 -33.796875 L 17.875 5.453125 C 15.96875 10.554688 12.648438 13.109375 7.921875 13.109375 Z M 7.921875 13.109375 "/></g></g><g style="fill:#3c3c44;fill-opacity:1;"><g transform="translate(304.869499, 225.33892)"><path style="stroke:none" d="M 9.953125 -20.328125 L 9.953125 0 L 4.75 0 L 4.75 -33.796875 L 9.765625 -33.796875 L 9.765625 -28.515625 L 10.203125 -28.515625 C 11.003906 -30.234375 12.207031 -31.613281 13.8125 -32.65625 C 15.425781 -33.707031 17.507812 -34.234375 20.0625 -34.234375 C 23.488281 -34.234375 26.253906 -33.1875 28.359375 -31.09375 C 30.460938 -29 31.515625 -25.796875 31.515625 -21.484375 L 31.515625 0 L 26.3125 0 L 26.3125 -21.125 C 26.3125 -23.78125 25.625 -25.851562 24.25 -27.34375 C 22.875 -28.832031 20.984375 -29.578125 18.578125 -29.578125 C 16.097656 -29.578125 14.039062 -28.769531 12.40625 -27.15625 C 10.769531 -25.550781 9.953125 -23.273438 9.953125 -20.328125 Z M 9.953125 -20.328125 "/></g></g><g style="fill:#3c3c44;fill-opacity:1;"><g transform="translate(335.301284, 225.33892)"><path style="stroke:none" d="M 18.484375 0.703125 C 15.316406 0.703125 12.585938 -0.0390625 10.296875 -1.53125 C 8.003906 -3.03125 6.242188 -5.09375 5.015625 -7.71875 C 3.785156 -10.34375 3.171875 -13.34375 3.171875 -16.71875 C 3.171875 -20.15625 3.800781 -23.191406 5.0625 -25.828125 C 6.332031 -28.460938 8.109375 -30.519531 10.390625 -32 C 12.671875 -33.488281 15.335938 -34.234375 18.390625 -34.234375 C 20.773438 -34.234375 22.921875 -33.789062 24.828125 -32.90625 C 26.734375 -32.03125 28.296875 -30.800781 29.515625 -29.21875 C 30.734375 -27.632812 31.488281 -25.785156 31.78125 -23.671875 L 26.578125 -23.671875 C 26.179688 -25.210938 25.304688 -26.582031 23.953125 -27.78125 C 22.597656 -28.976562 20.773438 -29.578125 18.484375 -29.578125 C 15.453125 -29.578125 13.003906 -28.421875 11.140625 -26.109375 C 9.285156 -23.796875 8.359375 -20.726562 8.359375 -16.90625 C 8.359375 -12.988281 9.273438 -9.851562 11.109375 -7.5 C 12.941406 -5.144531 15.398438 -3.96875 18.484375 -3.96875 C 20.503906 -3.96875 22.238281 -4.488281 23.6875 -5.53125 C 25.132812 -6.570312 26.097656 -8.015625 26.578125 -9.859375 L 31.78125 -9.859375 C 31.488281 -7.859375 30.765625 -6.0625 29.609375 -4.46875 C 28.453125 -2.882812 26.929688 -1.625 25.046875 -0.6875 C 23.160156 0.238281 20.972656 0.703125 18.484375 0.703125 Z M 18.484375 0.703125 "/></g></g></g></svg>