<svg width="32" height="32" viewBox="0 0 32 32" fill="none" xmlns="http://www.w3.org/2000/svg">
  <!-- ChatBubbleOvalLeftIcon outline path (scaled to 32x32) -->
  <path 
    d="M4 10.667C4 7.727 6.727 5.333 10 5.333H22C25.273 5.333 28 7.727 28 10.667V18.667C28 21.607 25.273 24 22 24H12.8L7.2 29.333C6.933 29.6 6.533 29.733 6.133 29.733C5.733 29.733 5.333 29.6 5.067 29.333C4.8 29.067 4.667 28.667 4.667 28.267V25.6C4.4 25.2 4 24.667 4 24V10.667Z" 
    stroke="#2d3748" 
    stroke-width="1.5" 
    stroke-linecap="round" 
    stroke-linejoin="round"
    fill="none"
  />
  
  <!-- Blue accent lines positioned like MessageLogo (w-3 h-0.5 and w-2 h-0.5) -->
  <!-- First line: w-3 = 12px, h-0.5 = 2px, centered horizontally with space-y-0.5 -->
  <rect x="11" y="13" width="12" height="2" rx="1" fill="url(#gradient1)" opacity="0.8"/>
  <!-- Second line: w-2 = 8px, h-0.5 = 2px, centered horizontally, 2px gap from first -->
  <rect x="12" y="17" width="8" height="2" rx="1" fill="url(#gradient2)" opacity="0.7"/>
  
  <defs>
    <linearGradient id="gradient1" x1="11" y1="14" x2="23" y2="14" gradientUnits="userSpaceOnUse">
      <stop stop-color="#8EBEFE"/>
      <stop offset="1" stop-color="#5087FF"/>
    </linearGradient>
    <linearGradient id="gradient2" x1="12" y1="18" x2="20" y2="18" gradientUnits="userSpaceOnUse">
      <stop stop-color="#73A5FF"/>
      <stop offset="1" stop-color="#6095FF"/>
    </linearGradient>
  </defs>
</svg> 